<?xml version="1.0" encoding="UTF-8" standalone="no"?>
<!-- Created with Inkscape (http://www.inkscape.org/) -->
<svg
   xmlns:dc="http://purl.org/dc/elements/1.1/"
   xmlns:cc="http://web.resource.org/cc/"
   xmlns:rdf="http://www.w3.org/1999/02/22-rdf-syntax-ns#"
   xmlns:svg="http://www.w3.org/2000/svg"
   xmlns="http://www.w3.org/2000/svg"
   xmlns:sodipodi="http://sodipodi.sourceforge.net/DTD/sodipodi-0.dtd"
   xmlns:inkscape="http://www.inkscape.org/namespaces/inkscape"
   version="1.0"
   x="0.00000000"
   y="0.00000000"
   width="600.00000"
   height="600.00000"
   id="svg2"
   sodipodi:version="0.32"
   inkscape:version="0.45.1"
   sodipodi:docname="Brosen_windrose-fr2.svg"
   sodipodi:docbase="C:\Documents and Settings\Martine\Mes documents\Saint-Hilaire"
   inkscape:label="napisy"
   inkscape:output_extension="org.inkscape.output.svg.inkscape">
  <metadata
     id="metadata36">
    <rdf:RDF>
      <cc:Work
         rdf:about="">
        <dc:format>image/svg+xml</dc:format>
        <dc:type
           rdf:resource="http://purl.org/dc/dcmitype/StillImage" />
      </cc:Work>
    </rdf:RDF>
  </metadata>
  <sodipodi:namedview
     inkscape:window-height="778"
     inkscape:window-width="1152"
     inkscape:pageshadow="2"
     inkscape:pageopacity="0.0"
     borderopacity="1.0"
     bordercolor="#666666"
     pagecolor="#ffffff"
     id="base"
     inkscape:zoom="0.83266575"
     inkscape:cx="14.426022"
     inkscape:cy="273.31561"
     inkscape:window-x="110"
     inkscape:window-y="0"
     inkscape:current-layer="layer2"
     showgrid="true"
     showguides="true"
     inkscape:guide-bbox="true">
    <sodipodi:guide
       orientation="horizontal"
       position="402.5248"
       id="guide2265" />
  </sodipodi:namedview>
  <defs
     id="defs4" />
  <g
     inkscape:groupmode="layer"
     id="layer7"
     inkscape:label="p4"
     style="display:inline">
    <path
       sodipodi:type="arc"
       style="opacity:1;fill:none;fill-opacity:1;fill-rule:nonzero;stroke:#000000;stroke-width:0.88720989;stroke-linecap:square;stroke-linejoin:miter;stroke-miterlimit:4;stroke-dasharray:none;stroke-dashoffset:0;stroke-opacity:1"
       id="path2408"
       sodipodi:cx="187.67506"
       sodipodi:cy="113.40358"
       sodipodi:rx="119.73839"
       sodipodi:ry="119.73839"
       d="M 307.41345 113.40358 A 119.73839 119.73839 0 1 1  67.936676,113.40358 A 119.73839 119.73839 0 1 1  307.41345 113.40358 z"
       transform="matrix(1.127129,0,0,1.127129,95.65651,171.7962)" />
  </g>
  <g
     style="display:inline"
     id="layer3" />
  <g
     style="display:inline"
     id="layer4" />
  <g
     inkscape:groupmode="layer"
     id="layer1"
     inkscape:label="p3"
     style="display:inline">
    <g
       id="g2362"
       transform="matrix(0.695009,0,0,0.683713,94.00027,94.69452)">
      <path
         d="M 264.65488,281.35479 L 307.55343,299.12392 L 307.53867,299.13003 L 83.172594,392.06566 L 264.65488,281.35479"
         style="fill:#c2c2c2;fill-opacity:1;fill-rule:evenodd;stroke:#c2c2c2;stroke-width:1.0000006;stroke-linecap:square;stroke-linejoin:miter;stroke-miterlimit:4;stroke-dasharray:none;stroke-opacity:1;display:inline"
         id="path8773" />
      <path
         d="M 290.16697,342.94635 L 307.9361,300.0478 L 307.92135,300.05391 L 83.555271,392.98954 L 290.16697,342.94635"
         style="fill:#999999;fill-opacity:1;fill-rule:evenodd;stroke:#999999;stroke-width:1.0000006;stroke-linecap:square;stroke-linejoin:miter;stroke-miterlimit:4;stroke-dasharray:none;stroke-opacity:1;display:inline"
         id="path8775" />
      <path
         d="M 351.75849,317.43427 L 308.85994,299.66514 L 308.8747,299.65903 L 533.24078,206.7234 L 351.75849,317.43427"
         style="fill:#e1e1e1;fill-opacity:1;fill-rule:evenodd;stroke:#c2c2c2;stroke-width:1.0000006;stroke-linecap:square;stroke-linejoin:miter;stroke-miterlimit:4;stroke-dasharray:none;stroke-opacity:1;display:inline"
         id="path8779" />
      <path
         d="M 290.16693,342.94611 L 307.93606,300.04756 L 307.94217,300.06232 L 400.8778,524.4284 L 290.16693,342.94611"
         style="fill:#c2c2c2;fill-opacity:1;fill-rule:evenodd;stroke:#c2c2c2;stroke-width:1.0000006;stroke-linecap:square;stroke-linejoin:miter;stroke-miterlimit:4;stroke-dasharray:none;stroke-opacity:1;display:inline"
         id="path8787" />
      <path
         d="M 351.75849,317.43402 L 308.85994,299.66489 L 308.86605,299.67964 L 401.80168,524.04572 L 351.75849,317.43402"
         style="fill:#999999;fill-opacity:1;fill-rule:evenodd;stroke:#999999;stroke-width:1.0000006;stroke-linecap:square;stroke-linejoin:miter;stroke-miterlimit:4;stroke-dasharray:none;stroke-opacity:1;display:inline"
         id="path8789" />
      <path
         d="M 326.24641,255.8425 L 308.47728,298.74105 L 308.47117,298.72629 L 215.53554,74.360214 L 326.24641,255.8425"
         style="fill:#e1e1e1;fill-opacity:1;fill-rule:evenodd;stroke:#c2c2c2;stroke-width:1.0000006;stroke-linecap:square;stroke-linejoin:miter;stroke-miterlimit:4;stroke-dasharray:none;stroke-opacity:1;display:inline"
         id="path8793" />
      <path
         d="M 264.65485,281.3546 L 307.5534,299.12373 L 307.53864,299.12984 L 83.172563,392.06547 L 264.65485,281.3546"
         style="fill:#e1e1e1;fill-opacity:1;fill-rule:evenodd;stroke:#c2c2c2;stroke-width:1.0000006;stroke-linecap:square;stroke-linejoin:miter;stroke-miterlimit:4;stroke-dasharray:none;stroke-opacity:1;display:inline"
         id="path1397" />
      <path
         d="M 290.16693,342.94637 L 307.93606,300.04782 L 307.94217,300.06258 L 400.8778,524.42866 L 290.16693,342.94637"
         style="fill:#e1e1e1;fill-opacity:1;fill-rule:evenodd;stroke:#c2c2c2;stroke-width:1.0000006;stroke-linecap:square;stroke-linejoin:miter;stroke-miterlimit:4;stroke-dasharray:none;stroke-opacity:1;display:inline"
         id="path1405" />
      <g
         id="g2356">
        <path
           id="path8781"
           style="fill:#b4b4b4;fill-opacity:1;fill-rule:evenodd;stroke:#b4b4b4;stroke-width:1;stroke-linecap:square;stroke-linejoin:miter;stroke-miterlimit:4;stroke-dasharray:none;stroke-opacity:1;display:inline"
           d="M 326.2464,255.84271 L 308.47727,298.74126 L 308.49202,298.73515 L 532.8581,205.79952 L 326.2464,255.84271" />
        <path
           id="path8795"
           style="fill:#b4b4b4;fill-opacity:1;fill-rule:evenodd;stroke:#b4b4b4;stroke-width:1;stroke-linecap:square;stroke-linejoin:miter;stroke-miterlimit:4;stroke-dasharray:none;stroke-opacity:1;display:inline"
           d="M 264.65485,281.35459 L 307.5534,299.12372 L 307.54729,299.10897 L 214.61166,74.742891 L 264.65485,281.35459" />
        <path
           id="path1399"
           style="fill:#b4b4b4;fill-opacity:1;fill-rule:evenodd;stroke:#b4b4b4;stroke-width:1;stroke-linecap:square;stroke-linejoin:miter;stroke-miterlimit:4;stroke-dasharray:none;stroke-opacity:1;display:inline"
           d="M 290.16694,342.94616 L 307.93607,300.04761 L 307.92132,300.05372 L 83.55524,392.98935 L 290.16694,342.94616" />
        <path
           id="path1407"
           style="fill:#b4b4b4;fill-opacity:1;fill-rule:evenodd;stroke:#b4b4b4;stroke-width:1;stroke-linecap:square;stroke-linejoin:miter;stroke-miterlimit:4;stroke-dasharray:none;stroke-opacity:1;display:inline"
           d="M 351.75849,317.43428 L 308.85994,299.66515 L 308.86605,299.6799 L 401.80168,524.04598 L 351.75849,317.43428" />
      </g>
    </g>
    <g
       style="display:inline"
       id="g2377"
       transform="matrix(0.491446,-0.491446,0.483458,0.483458,11.99521,306.1165)">
      <path
         d="M 264.65488,281.35479 L 307.55343,299.12392 L 307.53867,299.13003 L 83.172594,392.06566 L 264.65488,281.35479"
         style="fill:#c2c2c2;fill-opacity:1;fill-rule:evenodd;stroke:#c2c2c2;stroke-width:1.0000006;stroke-linecap:square;stroke-linejoin:miter;stroke-miterlimit:4;stroke-dasharray:none;stroke-opacity:1;display:inline"
         id="path2379" />
      <path
         d="M 290.16697,342.94635 L 307.9361,300.0478 L 307.92135,300.05391 L 83.555271,392.98954 L 290.16697,342.94635"
         style="fill:#999999;fill-opacity:1;fill-rule:evenodd;stroke:#999999;stroke-width:1.0000006;stroke-linecap:square;stroke-linejoin:miter;stroke-miterlimit:4;stroke-dasharray:none;stroke-opacity:1;display:inline"
         id="path2381" />
      <path
         d="M 351.75849,317.43427 L 308.85994,299.66514 L 308.8747,299.65903 L 533.24078,206.7234 L 351.75849,317.43427"
         style="fill:#e1e1e1;fill-opacity:1;fill-rule:evenodd;stroke:#c2c2c2;stroke-width:1.0000006;stroke-linecap:square;stroke-linejoin:miter;stroke-miterlimit:4;stroke-dasharray:none;stroke-opacity:1;display:inline"
         id="path2383" />
      <path
         d="M 290.16693,342.94611 L 307.93606,300.04756 L 307.94217,300.06232 L 400.8778,524.4284 L 290.16693,342.94611"
         style="fill:#c2c2c2;fill-opacity:1;fill-rule:evenodd;stroke:#c2c2c2;stroke-width:1.0000006;stroke-linecap:square;stroke-linejoin:miter;stroke-miterlimit:4;stroke-dasharray:none;stroke-opacity:1;display:inline"
         id="path2385" />
      <path
         d="M 351.75849,317.43402 L 308.85994,299.66489 L 308.86605,299.67964 L 401.80168,524.04572 L 351.75849,317.43402"
         style="fill:#999999;fill-opacity:1;fill-rule:evenodd;stroke:#999999;stroke-width:1.0000006;stroke-linecap:square;stroke-linejoin:miter;stroke-miterlimit:4;stroke-dasharray:none;stroke-opacity:1;display:inline"
         id="path2387" />
      <path
         d="M 326.24641,255.8425 L 308.47728,298.74105 L 308.47117,298.72629 L 215.53554,74.360214 L 326.24641,255.8425"
         style="fill:#e1e1e1;fill-opacity:1;fill-rule:evenodd;stroke:#c2c2c2;stroke-width:1.0000006;stroke-linecap:square;stroke-linejoin:miter;stroke-miterlimit:4;stroke-dasharray:none;stroke-opacity:1;display:inline"
         id="path2389" />
      <path
         d="M 264.65485,281.3546 L 307.5534,299.12373 L 307.53864,299.12984 L 83.172563,392.06547 L 264.65485,281.3546"
         style="fill:#e1e1e1;fill-opacity:1;fill-rule:evenodd;stroke:#c2c2c2;stroke-width:1.0000006;stroke-linecap:square;stroke-linejoin:miter;stroke-miterlimit:4;stroke-dasharray:none;stroke-opacity:1;display:inline"
         id="path2391" />
      <path
         d="M 290.16693,342.94637 L 307.93606,300.04782 L 307.94217,300.06258 L 400.8778,524.42866 L 290.16693,342.94637"
         style="fill:#e1e1e1;fill-opacity:1;fill-rule:evenodd;stroke:#c2c2c2;stroke-width:1.0000006;stroke-linecap:square;stroke-linejoin:miter;stroke-miterlimit:4;stroke-dasharray:none;stroke-opacity:1;display:inline"
         id="path2393" />
      <g
         id="g2395">
        <path
           id="path2397"
           style="fill:#b4b4b4;fill-opacity:1;fill-rule:evenodd;stroke:#b4b4b4;stroke-width:1;stroke-linecap:square;stroke-linejoin:miter;stroke-miterlimit:4;stroke-dasharray:none;stroke-opacity:1;display:inline"
           d="M 326.2464,255.84271 L 308.47727,298.74126 L 308.49202,298.73515 L 532.8581,205.79952 L 326.2464,255.84271" />
        <path
           id="path2399"
           style="fill:#b4b4b4;fill-opacity:1;fill-rule:evenodd;stroke:#b4b4b4;stroke-width:1;stroke-linecap:square;stroke-linejoin:miter;stroke-miterlimit:4;stroke-dasharray:none;stroke-opacity:1;display:inline"
           d="M 264.65485,281.35459 L 307.5534,299.12372 L 307.54729,299.10897 L 214.61166,74.742891 L 264.65485,281.35459" />
        <path
           id="path2401"
           style="fill:#b4b4b4;fill-opacity:1;fill-rule:evenodd;stroke:#b4b4b4;stroke-width:1;stroke-linecap:square;stroke-linejoin:miter;stroke-miterlimit:4;stroke-dasharray:none;stroke-opacity:1;display:inline"
           d="M 290.16694,342.94616 L 307.93607,300.04761 L 307.92132,300.05372 L 83.55524,392.98935 L 290.16694,342.94616" />
        <path
           id="path2403"
           style="fill:#b4b4b4;fill-opacity:1;fill-rule:evenodd;stroke:#b4b4b4;stroke-width:1;stroke-linecap:square;stroke-linejoin:miter;stroke-miterlimit:4;stroke-dasharray:none;stroke-opacity:1;display:inline"
           d="M 351.75849,317.43428 L 308.85994,299.66515 L 308.86605,299.6799 L 401.80168,524.04598 L 351.75849,317.43428" />
      </g>
    </g>
  </g>
  <g
     inkscape:groupmode="layer"
     id="layer6"
     inkscape:label="p2"
     style="display:inline">
    <g
       style="display:inline"
       id="g1536"
       transform="translate(-55.8718,-38.60234)">
      <path
         d="M 316.93813,337.99683 L 363.37116,337.99683 L 363.35986,338.00812 L 191.63751,509.73048 L 316.93813,337.99683"
         style="fill:#c2c2c2;fill-opacity:1;fill-rule:evenodd;stroke:#c2c2c2;stroke-width:1.00000036;stroke-linecap:square;stroke-linejoin:miter;stroke-miterlimit:4;stroke-dasharray:none;stroke-opacity:1;display:inline"
         id="path1538" />
      <path
         d="M 364.07826,385.13697 L 364.07826,338.70394 L 364.06697,338.71523 L 192.34461,510.43759 L 364.07826,385.13697"
         style="fill:#999999;fill-opacity:1;fill-rule:evenodd;stroke:#999999;stroke-width:1.00000036;stroke-linecap:square;stroke-linejoin:miter;stroke-miterlimit:4;stroke-dasharray:none;stroke-opacity:1;display:inline"
         id="path1540" />
      <path
         d="M 411.21837,337.99687 L 364.78534,337.99687 L 364.79664,337.98558 L 536.51899,166.26322 L 411.21837,337.99687"
         style="fill:#c2c2c2;fill-opacity:1;fill-rule:evenodd;stroke:#c2c2c2;stroke-width:1.00000036;stroke-linecap:square;stroke-linejoin:miter;stroke-miterlimit:4;stroke-dasharray:none;stroke-opacity:1;display:inline"
         id="path1542" />
      <path
         d="M 364.07824,290.85673 L 364.07824,337.28976 L 364.08953,337.27847 L 535.81189,165.55611 L 364.07824,290.85673"
         style="fill:#999999;fill-opacity:1;fill-rule:evenodd;stroke:#999999;stroke-width:1.00000036;stroke-linecap:square;stroke-linejoin:miter;stroke-miterlimit:4;stroke-dasharray:none;stroke-opacity:1;display:inline"
         id="path1544" />
      <path
         d="M 364.07813,385.13677 L 364.07813,338.70374 L 364.08942,338.71504 L 535.81178,510.43739 L 364.07813,385.13677"
         style="fill:#c2c2c2;fill-opacity:1;fill-rule:evenodd;stroke:#c2c2c2;stroke-width:1.00000036;stroke-linecap:square;stroke-linejoin:miter;stroke-miterlimit:4;stroke-dasharray:none;stroke-opacity:1;display:inline"
         id="path1546" />
      <path
         d="M 411.21827,337.99664 L 364.78524,337.99664 L 364.79653,338.00793 L 536.51889,509.73029 L 411.21827,337.99664"
         style="fill:#999999;fill-opacity:1;fill-rule:evenodd;stroke:#999999;stroke-width:1.00000036;stroke-linecap:square;stroke-linejoin:miter;stroke-miterlimit:4;stroke-dasharray:none;stroke-opacity:1;display:inline"
         id="path1548" />
      <path
         d="M 364.07817,290.85653 L 364.07817,337.28956 L 364.06688,337.27826 L 192.34452,165.55591 L 364.07817,290.85653"
         style="fill:#c2c2c2;fill-opacity:1;fill-rule:evenodd;stroke:#c2c2c2;stroke-width:1.00000036;stroke-linecap:square;stroke-linejoin:miter;stroke-miterlimit:4;stroke-dasharray:none;stroke-opacity:1;display:inline"
         id="path1550" />
      <path
         d="M 316.93803,337.99666 L 363.37106,337.99666 L 363.35977,337.98537 L 191.63741,166.26301 L 316.93803,337.99666"
         style="fill:#999999;fill-opacity:1;fill-rule:evenodd;stroke:#999999;stroke-width:1.00000036;stroke-linecap:square;stroke-linejoin:miter;stroke-miterlimit:4;stroke-dasharray:none;stroke-opacity:1;display:inline"
         id="path1552" />
    </g>
  </g>
  <g
     inkscape:groupmode="layer"
     id="layer2"
     inkscape:label="podstawowa"
     style="display:inline">
    <g
       transform="translate(-56.88765,-38.38015)"
       id="g11797">
      <path
         d="M 330.74501,304.6637 L 363.57811,337.4968 L 363.56214,337.4968 L 120.71013,337.4968 L 330.74501,304.6637"
         style="fill:#ffffff;fill-opacity:1;fill-rule:evenodd;stroke:#000000;stroke-width:1;stroke-linecap:square;stroke-linejoin:miter;stroke-miterlimit:4;stroke-dasharray:none;stroke-opacity:1;display:inline"
         id="path2122" />
      <path
         d="M 330.74501,371.3299 L 363.57811,338.4968 L 363.56214,338.4968 L 120.71013,338.4968 L 330.74501,371.3299"
         style="fill:#000000;fill-opacity:1;fill-rule:evenodd;stroke:#000000;stroke-width:1;stroke-linecap:square;stroke-linejoin:miter;stroke-miterlimit:4;stroke-dasharray:none;stroke-opacity:1;display:inline"
         id="path5805" />
      <path
         d="M 397.41118,371.32995 L 364.57808,338.49685 L 364.59405,338.49685 L 607.44606,338.49685 L 397.41118,371.32995"
         style="fill:#ffffff;fill-opacity:1;fill-rule:evenodd;stroke:#000000;stroke-width:1;stroke-linecap:square;stroke-linejoin:miter;stroke-miterlimit:4;stroke-dasharray:none;stroke-opacity:1;display:inline"
         id="path8724" />
      <path
         d="M 397.41118,304.66375 L 364.57808,337.49685 L 364.59405,337.49685 L 607.44606,337.49685 L 397.41118,304.66375"
         style="fill:#000000;fill-opacity:1;fill-rule:evenodd;stroke:#000000;stroke-width:1;stroke-linecap:square;stroke-linejoin:miter;stroke-miterlimit:4;stroke-dasharray:none;stroke-opacity:1;display:inline"
         id="path8726" />
      <path
         d="M 330.74499,371.32988 L 363.57809,338.49678 L 363.57809,338.51275 L 363.57809,581.36476 L 330.74499,371.32988"
         style="fill:#ffffff;fill-opacity:1;fill-rule:evenodd;stroke:#000000;stroke-width:1;stroke-linecap:square;stroke-linejoin:miter;stroke-miterlimit:4;stroke-dasharray:none;stroke-opacity:1;display:inline"
         id="path8740" />
      <path
         d="M 397.41119,371.32988 L 364.57809,338.49678 L 364.57809,338.51275 L 364.57809,581.36476 L 397.41119,371.32988"
         style="fill:#000000;fill-opacity:1;fill-rule:evenodd;stroke:#000000;stroke-width:1;stroke-linecap:square;stroke-linejoin:miter;stroke-miterlimit:4;stroke-dasharray:none;stroke-opacity:1;display:inline"
         id="path8742" />
      <path
         d="M 397.41115,304.66372 L 364.57805,337.49682 L 364.57805,337.48085 L 364.57805,94.62884 L 397.41115,304.66372"
         style="fill:#ffffff;fill-opacity:1;fill-rule:evenodd;stroke:#000000;stroke-width:1;stroke-linecap:square;stroke-linejoin:miter;stroke-miterlimit:4;stroke-dasharray:none;stroke-opacity:1;display:inline"
         id="path8746" />
      <path
         d="M 330.74495,304.66372 L 363.57805,337.49682 L 363.57805,337.48085 L 363.57805,94.62884 L 330.74495,304.66372"
         style="fill:#000000;fill-opacity:1;fill-rule:evenodd;stroke:#000000;stroke-width:1;stroke-linecap:square;stroke-linejoin:miter;stroke-miterlimit:4;stroke-dasharray:none;stroke-opacity:1;display:inline"
         id="path8748" />
    </g>
  </g>
  <g
     inkscape:groupmode="layer"
     id="layer5"
     inkscape:label="napisy"
     style="display:inline">
    <g
       id="g1461"
       inkscape:label="p4"
       style="display:inline"
       transform="translate(1.182297,-1.05875)" />
    <g
       style="display:inline"
       id="g1463"
       transform="translate(1.182297,-1.05875)" />
    <g
       style="display:inline"
       id="g1465"
       transform="translate(1.182297,-1.05875)" />
    <g
       id="g1467"
       inkscape:label="p3"
       style="display:inline"
       transform="translate(1.182297,-1.05875)" />
    <g
       id="g1469"
       inkscape:label="p2"
       style="display:inline"
       transform="translate(1.182297,-1.05875)" />
    <g
       id="g1471"
       inkscape:label="podstawowa"
       style="display:inline"
       transform="translate(1.182297,-1.05875)" />
    <path
       d="M 294.12404,12.387486 L 302.52247,12.387486 L 313.12794,32.387486 L 313.12794,12.387486 L 320.25685,12.387486 L 320.25685,41.547642 L 311.85841,41.547642 L 301.25294,21.547642 L 301.25294,41.547642 L 294.12404,41.547642 L 294.12404,12.387486"
       style="font-size:40px;font-style:normal;font-variant:normal;font-weight:bold;font-stretch:normal;text-align:start;line-height:125%;writing-mode:lr-tb;text-anchor:start;fill:#000000;fill-opacity:1;stroke:none;stroke-width:1px;stroke-linecap:butt;stroke-linejoin:miter;stroke-opacity:1;font-family:Bitstream Vera Sans"
       id="path1476" />
    <path
       d="M 572.23012,285.03658 L 592.52309,285.03658 L 592.52309,290.72017 L 579.74965,290.72017 L 579.74965,296.14985 L 591.76137,296.14985 L 591.76137,301.83345 L 579.74965,301.83345 L 579.74965,308.51314 L 592.95277,308.51314 L 592.95277,314.19673 L 572.23012,314.19673 L 572.23012,285.03658"
       style="font-size:40px;font-style:normal;font-variant:normal;font-weight:bold;font-stretch:normal;text-align:start;line-height:125%;writing-mode:lr-tb;text-anchor:start;fill:#000000;fill-opacity:1;stroke:none;stroke-width:1px;stroke-linecap:butt;stroke-linejoin:miter;stroke-opacity:1;display:inline;font-family:Bitstream Vera Sans"
       id="path1478" />
    <path
       d="M 316.7803,560.1914 L 316.7803,566.36328 C 315.1787,565.64716 313.6162,565.10679 312.09279,564.74218 C 310.56933,564.37763 309.13053,564.19533 307.77639,564.19531 C 305.97949,564.19533 304.65137,564.44273 303.79201,564.9375 C 302.93263,565.43231 302.50293,566.20054 302.50295,567.24218 C 302.50293,568.02346 302.78941,568.63543 303.36231,569.07812 C 303.94824,569.50783 305.00293,569.87892 306.52639,570.1914 L 309.7295,570.83593 C 312.97168,571.48699 315.27637,572.47658 316.64357,573.80468 C 318.01074,575.13282 318.69433,577.02084 318.69435,579.46875 C 318.69433,582.6849 317.73731,585.08073 315.82325,586.65625 C 313.9222,588.21875 311.01205,589 307.09279,589 C 305.24381,589 303.38835,588.82422 301.52639,588.47265 C 299.6644,588.12109 297.80242,587.60026 295.94045,586.91015 L 295.94045,580.5625 C 297.80242,581.55209 299.59929,582.30078 301.33107,582.80859 C 303.07586,583.30339 304.75554,583.55078 306.37013,583.55078 C 308.01075,583.55078 309.26725,583.27735 310.13966,582.73047 C 311.01205,582.1836 311.44823,581.40235 311.44825,580.38672 C 311.44823,579.47527 311.14876,578.77214 310.54981,578.27734 C 309.96387,577.78256 308.7855,577.33985 307.01466,576.94922 L 304.1045,576.30468 C 301.18784,575.6797 299.05241,574.6836 297.69825,573.3164 C 296.35711,571.94923 295.68653,570.10679 295.68653,567.78906 C 295.68653,564.88544 296.62403,562.65237 298.49904,561.08984 C 300.37404,559.52737 303.06933,558.74612 306.58497,558.74609 C 308.18652,558.74612 309.83365,558.86982 311.52639,559.11718 C 313.21907,559.35159 314.97039,559.70966 316.7803,560.1914"
       style="font-size:40px;font-style:normal;font-variant:normal;font-weight:bold;font-stretch:normal;text-align:start;line-height:125%;writing-mode:lr-tb;text-anchor:start;fill:#000000;fill-opacity:1;stroke:none;stroke-width:1px;stroke-linecap:butt;stroke-linejoin:miter;stroke-opacity:1;display:inline;font-family:Bitstream Vera Sans"
       id="path1482" />
    <path
       id="text1435"
       d="M 497.83855,478.65609 L 497.83855,482.35922 C 496.8776,481.92954 495.9401,481.60533 495.02605,481.38656 C 494.11198,481.16783 493.2487,481.05845 492.43621,481.05844 C 491.35807,481.05845 490.5612,481.20689 490.04558,481.50375 C 489.52995,481.80064 489.27214,482.26158 489.27214,482.88656 C 489.27214,483.35532 489.44401,483.72251 489.78777,483.98813 C 490.13932,484.24595 490.77214,484.4686 491.68621,484.65609 L 493.60808,485.04281 C 495.55338,485.43345 496.93619,486.0272 497.75652,486.82406 C 498.57682,487.62095 498.98697,488.75376 498.98699,490.2225 C 498.98697,492.15219 498.41275,493.58969 497.26433,494.535 C 496.12369,495.4725 494.3776,495.94125 492.02605,495.94125 C 490.91667,495.94125 489.80339,495.83578 488.68621,495.62484 C 487.56901,495.41391 486.45183,495.10141 485.33464,494.68734 L 485.33464,490.87875 C 486.45183,491.4725 487.52995,491.92172 488.56902,492.22641 C 489.61589,492.52328 490.6237,492.67172 491.59246,492.67172 C 492.57682,492.67172 493.33073,492.50766 493.85418,492.17953 C 494.3776,491.85141 494.63932,491.38266 494.63933,490.77328 C 494.63932,490.22641 494.45963,489.80454 494.10027,489.50766 C 493.7487,489.21079 493.04167,488.94516 491.97918,488.71078 L 490.23308,488.32406 C 488.48308,487.94907 487.20183,487.35141 486.38933,486.53109 C 485.58464,485.71079 485.1823,484.60532 485.1823,483.21469 C 485.1823,481.47251 485.7448,480.13267 486.8698,479.19516 C 487.9948,478.25767 489.61198,477.78892 491.72136,477.78891 C 492.68229,477.78892 493.67057,477.86314 494.68621,478.01156 C 495.70182,478.1522 496.7526,478.36705 497.83855,478.65609 M 502.95964,478.10531 L 515.13543,478.10531 L 515.13543,481.51547 L 507.47136,481.51547 L 507.47136,484.77328 L 514.67839,484.77328 L 514.67839,488.18344 L 507.47136,488.18344 L 507.47136,492.19125 L 515.39324,492.19125 L 515.39324,495.60141 L 502.95964,495.60141 L 502.95964,478.10531"
       style="font-size:12px;font-style:normal;font-weight:normal;line-height:125%;fill:#000000;fill-opacity:1;stroke:none;stroke-width:1px;stroke-linecap:butt;stroke-linejoin:miter;stroke-opacity:1;font-family:Bitstream Vera Sans" />
    <path
       id="text1439"
       d="M 484.01629,100.44516 L 489.05536,100.44516 L 495.41863,112.44516 L 495.41863,100.44516 L 499.69598,100.44516 L 499.69598,117.94125 L 494.65692,117.94125 L 488.29364,105.94125 L 488.29364,117.94125 L 484.01629,117.94125 L 484.01629,100.44516 M 504.12567,100.44516 L 516.30145,100.44516 L 516.30145,103.85531 L 508.63739,103.85531 L 508.63739,107.11313 L 515.84441,107.11313 L 515.84441,110.52328 L 508.63739,110.52328 L 508.63739,114.53109 L 516.55925,114.53109 L 516.55925,117.94125 L 504.12567,117.94125 L 504.12567,100.44516"
       style="font-size:12px;font-style:normal;font-weight:normal;line-height:125%;fill:#000000;fill-opacity:1;stroke:none;stroke-width:1px;stroke-linecap:butt;stroke-linejoin:miter;stroke-opacity:1;display:inline;font-family:Bitstream Vera Sans" />
    <path
       transform="translate(136.72256,-41.936111)"
       style="font-size:40px;font-style:normal;font-variant:normal;font-weight:bold;font-stretch:normal;text-align:start;line-height:100%;writing-mode:lr-tb;text-anchor:start;font-family:Bitstream Vera Sans"
       d="M -106.13281,331.87503 C -108.42449,331.87506 -110.20184,332.72141 -111.46484,334.41409 C -112.72787,336.10682 -113.35938,338.48963 -113.35938,341.56253 C -113.35938,344.62244 -112.72787,346.99874 -111.46484,348.69144 C -110.20184,350.38415 -108.42449,351.23051 -106.13281,351.2305 C -103.82814,351.23051 -102.04429,350.38415 -100.78125,348.69144 C -99.518253,346.99874 -98.886743,344.62244 -98.886719,341.56253 C -98.886743,338.48963 -99.518253,336.10682 -100.78125,334.41409 C -102.04429,332.72141 -103.82814,331.87506 -106.13281,331.87503 L -106.13281,331.87503 z M -106.13281,326.42581 C -101.44533,326.42584 -97.773463,327.76699 -95.117188,330.44925 C -92.460968,333.13157 -91.132844,336.83599 -91.132813,341.56253 C -91.132844,346.27608 -92.460968,349.974 -95.117188,352.65628 C -97.773463,355.33857 -101.44533,356.67972 -106.13281,356.67972 C -110.8073,356.67972 -114.47592,355.33857 -117.13867,352.65628 C -119.80144,349.974 -121.13281,346.27608 -121.13281,341.56253 C -121.13281,336.83599 -119.80144,333.13157 -117.13867,330.44925 C -114.47592,327.76699 -110.8073,326.42584 -106.13281,326.42581 L -106.13281,326.42581 z "
       id="flowRoot2257" />
    <path
       transform="translate(226.49261,31.694512)"
       style="font-size:24px;font-style:normal;font-variant:normal;font-weight:bold;font-stretch:normal;text-align:start;line-height:100%;writing-mode:lr-tb;text-anchor:start;font-family:Bitstream Vera Sans"
       d="M -133.67188,68.621894 L -128.63281,68.621894 L -122.26953,80.621894 L -122.26953,68.621894 L -117.99219,68.621894 L -117.99219,86.117988 L -123.03125,86.117988 L -129.39453,74.117988 L -129.39453,86.117988 L -133.67188,86.117988 L -133.67188,68.621894 z M -105.57031,71.575019 C -106.94532,71.575034 -108.01173,72.082846 -108.76953,73.098457 C -109.52735,74.114094 -109.90626,75.54378 -109.90625,77.387519 C -109.90626,79.223463 -109.52735,80.649243 -108.76953,81.664863 C -108.01173,82.680491 -106.94532,83.188303 -105.57031,83.1883 C -104.18751,83.188303 -103.1172,82.680491 -102.35938,81.664863 C -101.60158,80.649243 -101.22267,79.223463 -101.22266,77.387519 C -101.22267,75.54378 -101.60158,74.114094 -102.35938,73.098457 C -103.1172,72.082846 -104.18751,71.575034 -105.57031,71.575019 L -105.57031,71.575019 z M -105.57031,68.305488 C -102.75783,68.305506 -100.5547,69.110192 -98.960938,70.71955 C -97.367206,72.328939 -96.570332,74.551593 -96.570313,77.387519 C -96.570332,80.21565 -97.367206,82.434398 -98.960938,84.043769 C -100.5547,85.653145 -102.75783,86.457831 -105.57031,86.457832 C -108.37501,86.457831 -110.57618,85.653145 -112.17383,84.043769 C -113.77149,82.434398 -114.57031,80.21565 -114.57031,77.387519 C -114.57031,74.551593 -113.77149,72.328939 -112.17383,70.71955 C -110.57618,69.110192 -108.37501,68.305506 -105.57031,68.305488 L -105.57031,68.305488 z "
       id="flowRoot2267" />
    <path
       transform="translate(225.85387,409.49366)"
       style="font-size:24px;font-style:normal;font-variant:normal;font-weight:bold;font-stretch:normal;text-align:start;line-height:100%;writing-mode:lr-tb;text-anchor:start;font-family:Bitstream Vera Sans"
       d="M -121.49609,69.172675 L -121.49609,72.8758 C -122.45704,72.446126 -123.39454,72.121908 -124.30859,71.903144 C -125.22267,71.684408 -126.08595,71.575034 -126.89844,71.575019 C -127.97657,71.575034 -128.77344,71.723471 -129.28906,72.020332 C -129.80469,72.31722 -130.06251,72.778157 -130.0625,73.403144 C -130.06251,73.871906 -129.88868,74.23714 -129.54102,74.498847 C -129.19337,74.760577 -128.56251,74.985186 -127.64844,75.172675 L -125.72656,75.559394 C -123.78126,75.950029 -122.39845,76.543779 -121.57813,77.340644 C -120.75783,78.137527 -120.34767,79.270338 -120.34766,80.739082 C -120.34767,82.668773 -120.91994,84.104318 -122.06445,85.045722 C -123.209,85.987129 -124.95704,86.457831 -127.30859,86.457832 C -128.41798,86.457831 -129.53126,86.352363 -130.64844,86.141425 C -131.76563,85.930488 -132.88282,85.617988 -134,85.203925 L -134,81.395332 C -132.88282,81.989086 -131.80274,82.436351 -130.75977,82.737128 C -129.7168,83.037913 -128.71094,83.188303 -127.74219,83.1883 C -126.75782,83.188303 -126.00392,83.024241 -125.48047,82.696113 C -124.95704,82.367992 -124.69532,81.899242 -124.69531,81.289863 C -124.69532,80.742993 -124.87306,80.321119 -125.22852,80.024238 C -125.58399,79.727369 -126.29298,79.461744 -127.35547,79.227363 L -129.10156,78.840644 C -130.85157,78.465652 -132.13086,77.867996 -132.93945,77.047675 C -133.74805,76.227373 -134.15235,75.121905 -134.15234,73.731269 C -134.15235,71.989096 -133.58985,70.649253 -132.46484,69.711738 C -131.33985,68.774255 -129.72266,68.305506 -127.61328,68.305488 C -126.65235,68.305506 -125.66407,68.377771 -124.64844,68.522285 C -123.63282,68.666833 -122.58204,68.88363 -121.49609,69.172675 L -121.49609,69.172675 z M -108.38281,71.575019 C -109.75782,71.575034 -110.82423,72.082846 -111.58203,73.098457 C -112.33985,74.114094 -112.71876,75.54378 -112.71875,77.387519 C -112.71876,79.223463 -112.33985,80.649243 -111.58203,81.664863 C -110.82423,82.680491 -109.75782,83.188303 -108.38281,83.1883 C -107.00001,83.188303 -105.9297,82.680491 -105.17188,81.664863 C -104.41408,80.649243 -104.03517,79.223463 -104.03516,77.387519 C -104.03517,75.54378 -104.41408,74.114094 -105.17188,73.098457 C -105.9297,72.082846 -107.00001,71.575034 -108.38281,71.575019 L -108.38281,71.575019 z M -108.38281,68.305488 C -105.57033,68.305506 -103.3672,69.110192 -101.77344,70.71955 C -100.17971,72.328939 -99.382832,74.551593 -99.382813,77.387519 C -99.382832,80.21565 -100.17971,82.434398 -101.77344,84.043769 C -103.3672,85.653145 -105.57033,86.457831 -108.38281,86.457832 C -111.18751,86.457831 -113.38868,85.653145 -114.98633,84.043769 C -116.58399,82.434398 -117.38281,80.21565 -117.38281,77.387519 C -117.38281,74.551593 -116.58399,72.328939 -114.98633,70.71955 C -113.38868,69.110192 -111.18751,68.305506 -108.38281,68.305488 L -108.38281,68.305488 z "
       id="flowRoot2275" />
  </g>
</svg>
